<svg width="981" height="1833" fill="none" xmlns="http://www.w3.org/2000/svg"><g opacity=".8" stroke="#E4E4E4" stroke-miterlimit="10"><path d="M1683.51 367.843a206.863 206.863 0 00-17.25-21.631c-6.14-7.307-12.27-14.615-18.41-21.923-.88-.877-1.46-1.754-2.34-2.63-130.08-97.338-291.43-154.63-466.52-154.63-384.089 0-703.579 277.69-768.178 643.656 50.276-238.813 265.997-418.289 524.395-418.289 33.323 0 66.063 2.923 97.923 8.77 127.74 23.092 228 77.46 293.47 157.552 78.05 97.922 135.34 120.43 192.93 120.43 109.9 0 198.76-88.861 198.76-198.768 0-41.799-12.86-80.384-34.78-112.537zm-149.66 767.887c-61.09 0-115.75 27.48-152 71.03-6.43 7.6-23.68 32.15-26.89 36.24-73.66 283.25-331.18 492.54-637.52 492.54-164.86 0-315.689-60.51-431.15-160.77C454.366 1734.08 683.241 1832 935.792 1832c193.508 0 373.568-57.58 522.638-156.38 69.87-46.19 133-101.43 187.37-163.99 14.62-16.66 28.36-33.61 41.8-51.44 4.09-4.97 7.89-10.23 11.69-15.79 21.05-31.57 33.33-69.27 33.33-110.2-.3-109.61-89.16-198.47-198.77-198.47z"/><path d="M1354.67 1242.71c-98.22 120.73-249.34 198.19-419.171 198.19-258.397 0-474.119-179.48-524.395-418-5.554-31.277-9.354-63.431-10.815-95.876v-21.046c1.753-32.446 5.261-64.308 10.815-95.584 25.43-144.691 90.907-275.352 184.444-380.874-305.751 57.292-536.964 325.336-536.964 647.16 0 126.28 35.661 244.08 97.045 344.34 37.707 55.83 81.261 107.28 130.368 153.46 115.461 100.26 266.29 160.77 431.15 160.77 306.633.29 564.153-209 637.523-492.54z"/><path d="M935.5 1440.9c-258.398 0-474.119-179.48-524.396-418-5.554-31.278-9.354-63.431-10.815-95.877v-21.046c1.754-32.446 5.261-64.307 10.815-95.584 25.431-144.691 90.907-275.351 184.445-380.874C738.486 268.459 946.9 166.737 1179.28 166.737c174.8 0 336.45 57.584 466.52 154.63-54.66-62.554-117.8-117.799-187.66-163.984C1309.07 58.584 1129.3 1 935.792 1 419.289 1.292 1 411.104 1 916.5c0 186.49 57 360.12 154.922 504.81 37.707 55.83 81.261 107.28 130.368 153.46 115.46 100.26 266.29 160.77 431.15 160.77 306.34 0 563.86-209.29 637.52-492.54-98.22 120.43-249.63 197.9-419.46 197.9z"/><path d="M1380.68 235.721c100.26 0 192.63 32.739 267.17 88.277-.88-.877-1.46-1.754-2.34-2.631-130.08-97.338-291.43-154.63-466.52-154.63-384.089 0-703.579 277.69-768.178 643.656C461.088 571.58 676.81 392.105 935.207 392.105c33.323 0 66.063 2.923 97.923 8.769 82.43-100.553 207.24-165.153 347.55-165.153z"/></g></svg>