<svg width="981" height="1833" viewBox="0 0 981 1833" fill="none" xmlns="http://www.w3.org/2000/svg">
<g opacity="0.8">
<path d="M1683.51 367.843C1678.25 360.243 1672.4 352.935 1666.26 346.212C1660.12 338.905 1653.99 331.597 1647.85 324.289C1646.97 323.412 1646.39 322.535 1645.51 321.659C1515.43 224.321 1354.08 167.029 1178.99 167.029C794.901 167.029 475.411 444.719 410.812 810.685C461.088 571.872 676.809 392.396 935.207 392.396C968.53 392.396 1001.27 395.319 1033.13 401.166C1160.87 424.258 1261.13 478.626 1326.6 558.718C1404.65 656.64 1461.94 679.148 1519.53 679.148C1629.43 679.148 1718.29 590.287 1718.29 480.38C1718.29 438.581 1705.43 399.996 1683.51 367.843Z" stroke="#E4E4E4" stroke-miterlimit="10"/>
<path d="M1533.85 1135.73C1472.76 1135.73 1418.1 1163.21 1381.85 1206.76C1375.42 1214.36 1358.17 1238.91 1354.96 1243C1281.3 1526.25 1023.78 1735.54 717.44 1735.54C552.58 1735.54 401.751 1675.03 286.29 1574.77C454.366 1734.08 683.241 1832 935.792 1832C1129.3 1832 1309.36 1774.42 1458.43 1675.62C1528.3 1629.43 1591.43 1574.19 1645.8 1511.63C1660.42 1494.97 1674.16 1478.02 1687.6 1460.19C1691.69 1455.22 1695.49 1449.96 1699.29 1444.4C1720.34 1412.83 1732.62 1375.13 1732.62 1334.2C1732.32 1224.59 1643.46 1135.73 1533.85 1135.73Z" stroke="#E4E4E4" stroke-miterlimit="10"/>
<path d="M1354.67 1242.71C1256.45 1363.44 1105.33 1440.9 935.499 1440.9C677.102 1440.9 461.38 1261.42 411.104 1022.9C405.55 991.623 401.75 959.469 400.289 927.024C400.289 923.516 400.289 920.008 400.289 916.501C400.289 912.993 400.289 909.485 400.289 905.978C402.042 873.532 405.55 841.67 411.104 810.394C436.534 665.703 502.011 535.042 595.548 429.52C289.797 486.812 58.5838 754.856 58.5838 1076.68C58.5838 1202.96 94.245 1320.76 155.629 1421.02C193.336 1476.85 236.89 1528.3 285.997 1574.48C401.458 1674.74 552.287 1735.25 717.147 1735.25C1023.78 1735.54 1281.3 1526.25 1354.67 1242.71Z" stroke="#E4E4E4" stroke-miterlimit="10"/>
<path d="M935.5 1440.9C677.102 1440.9 461.381 1261.42 411.104 1022.9C405.55 991.622 401.75 959.469 400.289 927.023C400.289 923.515 400.289 920.008 400.289 916.5C400.289 912.992 400.289 909.485 400.289 905.977C402.043 873.531 405.55 841.67 411.104 810.393C436.535 665.702 502.011 535.042 595.549 429.519C738.486 268.459 946.9 166.737 1179.28 166.737C1354.08 166.737 1515.73 224.321 1645.8 321.367C1591.14 258.813 1528 203.568 1458.14 157.383C1309.07 58.5841 1129.3 1 935.792 1C419.289 1.29231 1 411.104 1 916.5C1 1102.99 57.9995 1276.62 155.922 1421.31C193.629 1477.14 237.183 1528.59 286.29 1574.77C401.75 1675.03 552.58 1735.54 717.44 1735.54C1023.78 1735.54 1281.3 1526.25 1354.96 1243C1256.74 1363.43 1105.33 1440.9 935.5 1440.9Z" stroke="#E4E4E4" stroke-miterlimit="10"/>
<path d="M1380.68 235.721C1480.94 235.721 1573.31 268.46 1647.85 323.998C1646.97 323.121 1646.39 322.244 1645.51 321.367C1515.43 224.029 1354.08 166.737 1178.99 166.737C794.901 166.737 475.411 444.427 410.812 810.393C461.088 571.58 676.81 392.105 935.207 392.105C968.53 392.105 1001.27 395.028 1033.13 400.874C1115.56 300.321 1240.37 235.721 1380.68 235.721Z" stroke="#E4E4E4" stroke-miterlimit="10"/>
</g>
</svg>
